<svg width="49" height="48" viewBox="0 0 49 48" fill="none" xmlns="http://www.w3.org/2000/svg">
<path d="M48.1998 29.5458V12.6552L10.0665 6.64737V4.57088C10.0665 2.31444 7.96274 0.478638 5.37677 0.478638H0.533203V3.25147H5.37666C6.2104 3.25147 6.88875 3.84338 6.88875 4.57088V30.1739C6.88875 33.1296 9.64452 35.5342 13.0319 35.5342H14.3036V38.6941C13.6543 38.4458 12.9381 38.3071 12.185 38.3071C9.26467 38.3071 6.88875 40.3802 6.88875 42.9285C6.88875 45.4767 9.26467 47.5499 12.185 47.5499C14.9267 47.5499 17.1882 45.7226 17.4548 43.3906H17.4813V35.5342H45.0221V38.6941C44.3728 38.4458 43.6566 38.3071 42.9035 38.3071C39.9832 38.3071 37.6072 40.3802 37.6072 42.9285C37.6072 45.4767 39.9832 47.5499 42.9035 47.5499C45.6452 47.5499 47.9067 45.7226 48.1732 43.3906H48.1998V32.7614H13.0319C11.3967 32.7614 10.0665 31.6007 10.0665 30.1739V29.0836L48.1998 29.5458ZM12.185 44.777C11.0169 44.777 10.0665 43.9478 10.0665 42.9285C10.0665 41.9092 11.0169 41.0799 12.185 41.0799C13.3532 41.0799 14.3036 41.9092 14.3036 42.9285C14.3036 43.9478 13.3532 44.777 12.185 44.777ZM42.9035 44.777C41.7354 44.777 40.785 43.9478 40.785 42.9285C40.785 41.9092 41.7354 41.0799 42.9035 41.0799C44.0717 41.0799 45.0221 41.9092 45.0221 42.9285C45.0221 43.9478 44.0717 44.777 42.9035 44.777ZM25.9554 26.5031L19.5999 26.4261V10.967L25.9554 11.9683V26.5031ZM29.1332 12.4689L34.9591 13.3868V26.6123L29.1332 26.5416V12.4689ZM16.4221 26.3876L10.0665 26.3106V9.46503L16.4221 10.4663V26.3876ZM45.0221 26.7342L38.1369 26.6507V13.8874L45.0221 14.9722V26.7342Z" fill="white"/>
</svg>
