<svg width="31" height="30" viewBox="0 0 31 30" fill="none" xmlns="http://www.w3.org/2000/svg">
<path d="M30.3999 18.6883V8.13862L6.13319 4.38622V3.08928C6.13319 1.67994 4.79442 0.533325 3.1488 0.533325H0.0665283V2.2652H3.14873C3.6793 2.2652 4.11097 2.6349 4.11097 3.08928V19.0805C4.11097 20.9267 5.86464 22.4285 8.02027 22.4285H8.82949V24.4021C8.41635 24.2471 7.96054 24.1604 7.48134 24.1604C5.62292 24.1604 4.11097 25.4553 4.11097 27.0469C4.11097 28.6385 5.62292 29.9333 7.48134 29.9333C9.22605 29.9333 10.6652 28.7921 10.8348 27.3355H10.8517V22.4285H28.3776V24.4021C27.9645 24.2471 27.5087 24.1604 27.0295 24.1604C25.1711 24.1604 23.6591 25.4553 23.6591 27.0469C23.6591 28.6385 25.1711 29.9333 27.0295 29.9333C28.7742 29.9333 30.2133 28.7921 30.3829 27.3355H30.3999V20.6967H8.02027C6.9797 20.6967 6.13319 19.9717 6.13319 19.0805V18.3996L30.3999 18.6883ZM7.48134 28.2015C6.73797 28.2015 6.13319 27.6835 6.13319 27.0469C6.13319 26.4102 6.73797 25.8923 7.48134 25.8923C8.22471 25.8923 8.82949 26.4102 8.82949 27.0469C8.82949 27.6835 8.22471 28.2015 7.48134 28.2015ZM27.0295 28.2015C26.2861 28.2015 25.6813 27.6835 25.6813 27.0469C25.6813 26.4102 26.2861 25.8923 27.0295 25.8923C27.7729 25.8923 28.3776 26.4102 28.3776 27.0469C28.3776 27.6835 27.7729 28.2015 27.0295 28.2015ZM16.2443 16.7878L12.1999 16.7397V7.0842L16.2443 7.70958V16.7878ZM18.2665 8.02229L21.9739 8.5956V16.856L18.2665 16.8119V8.02229ZM10.1776 16.7157L6.13319 16.6676V6.1461L10.1776 6.77148V16.7157ZM28.3776 16.9321L23.9962 16.88V8.90826L28.3776 9.58577V16.9321Z" fill="white"/>
</svg>
