<svg width="100" height="100" viewBox="0 0 100 100" fill="none" xmlns="http://www.w3.org/2000/svg">
<path d="M85.3555 14.6445C75.9115 5.20098 63.3555 0 50 0C36.6445 0 24.0885 5.20098 14.6445 14.6445C5.20098 24.0885 0 36.6445 0 50C0 63.3555 5.20098 75.9115 14.6445 85.3555C24.0885 94.799 36.6445 100 50 100C63.3555 100 75.9115 94.799 85.3555 85.3555C94.799 75.9115 100 63.3555 100 50C100 36.6445 94.799 24.0885 85.3555 14.6445ZM50 13.6719C55.9232 13.6719 60.7422 18.4908 60.7422 24.4141C60.7422 30.3373 55.9232 35.1562 50 35.1562C44.0768 35.1562 39.2578 30.3373 39.2578 24.4141C39.2578 18.4908 44.0768 13.6719 50 13.6719ZM63.6719 82.0312H36.3281V76.1719H42.1875V46.875H36.3281V41.0156H57.8125V76.1719H63.6719V82.0312Z" fill="white"/>
</svg>
