<svg width="100" height="100" viewBox="0 0 100 100" fill="none" xmlns="http://www.w3.org/2000/svg">
<g clip-path="url(#clip0)">
<path d="M76.0267 66.1519C72.7597 62.9265 68.6812 62.9265 65.4349 66.1519C62.9587 68.6074 60.4824 71.0629 58.0477 73.56C57.3818 74.2467 56.82 74.3923 56.0084 73.9345C54.4061 73.0606 52.6998 72.353 51.1599 71.3958C43.9808 66.8803 37.967 61.0745 32.6399 54.5405C29.9971 51.2943 27.6457 47.8192 26.0018 43.9071C25.6688 43.1163 25.7313 42.5961 26.3763 41.951C28.8526 39.558 31.2665 37.1025 33.7011 34.647C37.093 31.2343 37.093 27.239 33.6803 23.8055C31.7451 21.8495 29.8098 19.935 27.8746 17.979C25.8769 15.9813 23.9001 13.9628 21.8816 11.986C18.6146 8.80218 14.536 8.80218 11.2898 12.0068C8.79269 14.4622 6.39964 16.9801 3.86094 19.394C1.50952 21.6206 0.3234 24.3465 0.0736908 27.5303C-0.321681 32.7118 0.947671 37.6019 2.73725 42.3672C6.39964 52.2307 11.9765 60.9913 18.7394 69.0236C27.8746 79.8859 38.7785 88.4801 51.5345 94.6812C57.2778 97.4696 63.2292 99.6129 69.7008 99.9667C74.1539 100.216 78.0244 99.0927 81.125 95.6176C83.2475 93.2453 85.6405 91.0812 87.8879 88.813C91.2174 85.4419 91.2382 81.3634 87.9295 78.0339C83.9758 74.0594 80.0013 70.1057 76.0267 66.1519Z" fill="white"/>
<path d="M72.0521 49.5671L79.7307 48.2561C78.5238 41.2019 75.1943 34.8135 70.1377 29.7361C64.7898 24.3882 58.0268 21.0171 50.5772 19.9766L49.4951 27.6968C55.2592 28.5084 60.5031 31.1095 64.6441 35.2505C68.5562 39.1626 71.1157 44.1151 72.0521 49.5671Z" fill="white"/>
<path d="M84.0591 16.1894C75.1944 7.32477 63.9784 1.72714 51.597 -1.52588e-05L50.5149 7.72015C61.2107 9.2184 70.9078 14.0669 78.5655 21.7038C85.8279 28.9662 90.5931 38.143 92.3203 48.2354L99.9988 46.9244C97.9803 35.2297 92.466 24.6171 84.0591 16.1894Z" fill="white"/>
</g>
<defs>
<clipPath id="clip0">
<rect width="100" height="100" fill="white"/>
</clipPath>
</defs>
</svg>
