<svg width="100" height="100" viewBox="0 0 100 100" fill="none" xmlns="http://www.w3.org/2000/svg">
<path d="M50.4166 5C30.8875 5 15 20.0931 15 38.6458C15 56.5928 47.3791 97.4825 48.7584 99.2162C49.1459 99.7111 49.7668 100 50.4168 100C51.0668 100 51.6877 99.7111 52.0752 99.2162C53.4543 97.4825 85.8336 56.593 85.8336 38.6458C85.8332 20.0931 69.9457 5 50.4166 5ZM50.4166 56.4583C40.0791 56.4583 31.6666 48.4664 31.6666 38.6458C31.6666 28.8251 40.0791 20.8333 50.4166 20.8333C60.7541 20.8333 69.1666 28.8251 69.1666 38.6458C69.1666 48.4664 60.7541 56.4583 50.4166 56.4583Z" fill="white"/>
</svg>
