<svg width="120" height="121" viewBox="0 0 120 121" fill="none" xmlns="http://www.w3.org/2000/svg">
<path d="M75.8619 70.5048C79.788 78.0647 85.3549 83.8714 89.9329 87.8575C90.4948 88.3445 91.2066 88.4643 91.761 88.1796L104.311 81.6536C104.873 81.3614 105.18 80.7096 105.105 79.9753C104.476 73.9363 102.917 66.0467 98.9838 58.4942C97.1557 54.9877 95.5223 51.5711 93.5592 48.664C93.0123 47.8548 92.0607 47.5402 91.3415 47.9148L72.0407 57.9473C71.3364 58.3144 71.0517 59.2435 71.3664 60.1426C72.5277 63.4693 74.0262 66.9758 75.8619 70.5048Z" fill="white"/>
<path d="M105.525 86.1044L94.301 91.941L103.824 114.351C105.832 118.21 109.736 120.188 112.5 118.749L117.438 116.187C120.203 114.748 120.832 110.418 118.824 106.559L105.525 86.1044ZM112.373 112.471C111.159 113.1 109.556 112.426 108.792 110.957C108.027 109.489 108.394 107.788 109.608 107.158C110.822 106.529 112.425 107.203 113.19 108.672C113.954 110.133 113.587 111.841 112.373 112.471Z" fill="white"/>
<path d="M75.1351 39.4258C72.6925 39.4258 71.9358 35.7245 70.9843 31.0341C70.5272 28.8014 69.778 25.115 69.0362 24.4782C68.2944 25.115 67.5452 28.7939 67.0881 31.0341C66.1366 35.7245 65.3798 39.4258 62.9373 39.4258C60.4947 39.4258 59.7455 35.7245 58.7864 31.0341C58.3294 28.8014 57.5801 25.115 56.8384 24.4782C56.0966 25.115 55.3473 28.7939 54.8903 31.0341C53.9388 35.7245 53.182 39.4258 50.7394 39.4258C48.2969 39.4258 47.5476 35.7245 46.5886 31.0341C46.1166 28.719 45.3298 24.8453 44.5581 24.4257C44.5656 24.4332 44.5956 24.4407 44.6405 24.4407V22.193C47.0831 22.193 47.8323 25.8943 48.7914 30.5846C49.2484 32.8174 49.9977 36.5037 50.7394 37.1406C51.4812 36.5037 52.2305 32.8249 52.6875 30.5846C53.639 25.8943 54.3958 22.193 56.8384 22.193C59.2809 22.193 60.0302 25.8943 60.9892 30.5846C61.4463 32.8174 62.1955 36.5037 62.9373 37.1406C63.679 36.5037 64.4283 32.8249 64.8853 30.5846C65.8369 25.8943 66.5936 22.193 69.0362 22.193C71.4788 22.193 72.2355 25.8943 73.1871 30.5846C73.6591 32.8998 74.4458 36.7734 75.2175 37.193C75.21 37.1855 75.1801 37.178 75.1351 37.178V39.4258Z" fill="white"/>
<path d="M75.1351 70.0179C72.6925 70.0179 71.9358 66.3166 70.9843 61.6263C70.5272 59.3935 69.778 55.7072 69.0362 55.0703C68.2944 55.7072 67.5452 59.386 67.0881 61.6263C66.1366 66.3166 65.3798 70.0179 62.9373 70.0179C60.4947 70.0179 59.7455 66.3166 58.7864 61.6263C58.3294 59.3935 57.5801 55.7072 56.8384 55.0703C56.0966 55.7072 55.3473 59.386 54.8903 61.6263C53.9388 66.3166 53.182 70.0179 50.7394 70.0179C48.2969 70.0179 47.5476 66.3166 46.5886 61.6263C46.1166 59.3111 45.3298 55.4374 44.5581 55.0179C44.5656 55.0254 44.5956 55.0329 44.6405 55.0329V52.7851C47.0831 52.7851 47.8323 56.4864 48.7914 61.1767C49.2484 63.4095 49.9977 67.0958 50.7394 67.7327C51.4812 67.0958 52.2305 63.417 52.6875 61.1767C53.639 56.4864 54.3958 52.7851 56.8384 52.7851C59.2809 52.7851 60.0302 56.4864 60.9892 61.1767C61.4463 63.4095 62.1955 67.0958 62.9373 67.7327C63.679 67.0958 64.4283 63.417 64.8853 61.1767C65.8369 56.4864 66.5936 52.7851 69.0362 52.7851C71.4788 52.7851 72.2355 56.4864 73.1871 61.1767C73.6591 63.4919 74.4458 67.3656 75.2175 67.7851C75.21 67.7776 75.1801 67.7702 75.1351 67.7702V70.0179Z" fill="white"/>
<path d="M75.1349 100.617C72.6924 100.617 71.9356 96.916 70.9841 92.2256C70.527 89.9929 69.7778 86.3065 69.036 85.6697C68.2943 86.3065 67.545 89.9854 67.088 92.2256C66.1364 96.916 65.3797 100.617 62.9371 100.617C60.4945 100.617 59.7453 96.916 58.7862 92.2256C58.3292 89.9929 57.5799 86.3065 56.8382 85.6697C56.0964 86.3065 55.3472 89.9854 54.8901 92.2256C53.9461 96.9085 53.1893 100.617 50.7468 100.617C48.3042 100.617 47.5549 96.916 46.5959 92.2256C46.1239 89.9105 45.3372 86.0368 44.5654 85.6172C44.5729 85.6247 44.6029 85.6322 44.6478 85.6322V83.3845C47.0904 83.3845 47.8397 87.0858 48.7987 91.7761C49.2557 94.0089 50.005 97.6952 50.7468 98.3321C51.4885 97.6952 52.2378 94.0164 52.6948 91.7761C53.6464 87.0858 54.4031 83.3845 56.8457 83.3845C59.2882 83.3845 60.0375 87.0858 60.9965 91.7761C61.4536 94.0089 62.2028 97.6952 62.9446 98.3321C63.6864 97.6952 64.4356 94.0164 64.8927 91.7761C65.8442 87.0858 66.601 83.3845 69.0435 83.3845C71.4861 83.3845 72.2428 87.0858 73.1944 91.7761C73.6664 94.0913 74.4531 97.9649 75.2249 98.3845C75.2174 98.377 75.1874 98.3695 75.1424 98.3695V100.617H75.1349Z" fill="white"/>
<path d="M35.9491 28.8012C33.5065 28.8012 32.7498 25.0999 31.7982 20.4096C31.3412 18.1768 30.5919 14.4905 29.8502 13.8536C29.1084 14.483 28.3591 18.1693 27.9021 20.4096C26.9506 25.0999 26.1938 28.8012 23.7512 28.8012C21.3087 28.8012 20.5594 25.0999 19.6004 20.4096C19.1433 18.1768 18.3941 14.4905 17.6523 13.8536C16.9106 14.4905 16.1613 18.1768 15.7043 20.4096C14.7527 25.0999 13.996 28.8012 11.5534 28.8012C9.11084 28.8012 8.36159 25.0999 7.40254 20.4096C6.93052 18.0944 6.1438 14.2208 5.37207 13.8012C5.37956 13.8087 5.40953 13.8162 5.45449 13.8162V11.5684C7.89705 11.5684 8.64631 15.2697 9.60535 19.9601C10.0624 22.1928 10.8116 25.8791 11.5534 26.516C12.2952 25.8791 13.0444 22.2003 13.5015 19.9675C14.453 15.2772 15.2098 11.5759 17.6523 11.5759C20.0949 11.5759 20.8441 15.2772 21.8032 19.9675C22.2602 22.2003 23.0095 25.8866 23.7512 26.5235C24.493 25.8866 25.2423 22.2078 25.6993 19.9675C26.6509 15.2772 27.4076 11.5759 29.8502 11.5759C32.2927 11.5759 33.0495 15.2772 34.001 19.9675C34.4731 22.2827 35.2598 26.1564 36.0315 26.576C36.024 26.5685 35.994 26.561 35.9491 26.561V28.8012Z" fill="white"/>
<path d="M35.9491 59.3933C33.5065 59.3933 32.7498 55.692 31.7982 51.0017C31.3412 48.7689 30.5919 45.0826 29.8502 44.4457C29.1084 45.0751 28.3591 48.7614 27.9021 51.0017C26.9506 55.692 26.1938 59.3933 23.7512 59.3933C21.3087 59.3933 20.5594 55.692 19.6004 51.0017C19.1433 48.7689 18.3941 45.0826 17.6523 44.4457C16.9106 45.0826 16.1613 48.7689 15.7043 51.0017C14.7527 55.692 13.996 59.3933 11.5534 59.3933C9.11084 59.3933 8.36159 55.692 7.40254 51.0017C6.93052 48.6865 6.1438 44.8129 5.37207 44.3933C5.37956 44.4008 5.40953 44.4083 5.45449 44.4083V42.1605C7.89705 42.1605 8.64631 45.8618 9.60535 50.5522C10.0624 52.7849 10.8116 56.4713 11.5534 57.1081C12.2952 56.4713 13.0444 52.7924 13.5015 50.5596C14.453 45.8693 15.2098 42.168 17.6523 42.168C20.0949 42.168 20.8441 45.8693 21.8032 50.5596C22.2602 52.7924 23.0095 56.4787 23.7512 57.1156C24.493 56.4787 25.2423 52.7999 25.6993 50.5596C26.6509 45.8693 27.4076 42.168 29.8502 42.168C32.2927 42.168 33.0495 45.8693 34.001 50.5596C34.4731 52.8748 35.2598 56.7485 36.0315 57.1681C36.024 57.1606 35.994 57.1531 35.9491 57.1531V59.3933Z" fill="white"/>
<path d="M35.9491 89.9852C33.5065 89.9852 32.7498 86.2839 31.7982 81.5936C31.3412 79.3608 30.5919 75.6745 29.8502 75.0376C29.1084 75.667 28.3591 79.3533 27.9021 81.5936C26.9506 86.2839 26.1938 89.9852 23.7512 89.9852C21.3087 89.9852 20.5594 86.2839 19.6004 81.5936C19.1433 79.3608 18.3941 75.6745 17.6523 75.0376C16.9106 75.6745 16.1613 79.3608 15.7043 81.5936C14.7527 86.2839 13.996 89.9852 11.5534 89.9852C9.11084 89.9852 8.36159 86.2839 7.40254 81.5936C6.93052 79.2784 6.1438 75.4048 5.37207 74.9852C5.37956 74.9927 5.40953 75.0002 5.45449 75.0002V72.7524C7.89705 72.7524 8.64631 76.4537 9.60535 81.144C10.0624 83.3768 10.8116 87.0631 11.5534 87.7C12.2952 87.0631 13.0444 83.3843 13.5015 81.1515C14.453 76.4612 15.2098 72.7599 17.6523 72.7599C20.0949 72.7599 20.8441 76.4612 21.8032 81.1515C22.2602 83.3843 23.0095 87.0706 23.7512 87.7075C24.493 87.0706 25.2423 83.3918 25.6993 81.1515C26.6509 76.4612 27.4076 72.7599 29.8502 72.7599C32.2927 72.7599 33.0495 76.4612 34.001 81.1515C34.4731 83.4667 35.2598 87.3404 36.0315 87.7599C36.024 87.7525 35.994 87.745 35.9491 87.745V89.9852Z" fill="white"/>
<path d="M114.291 24.9427C111.848 24.9427 111.092 21.2413 110.14 16.551C109.683 14.3182 108.934 10.6319 108.192 9.99506C107.45 10.6244 106.701 14.3108 106.244 16.551C105.293 21.2413 104.536 24.9427 102.093 24.9427C99.6506 24.9427 98.9014 21.2413 97.9423 16.551C97.4853 14.3182 96.736 10.6319 95.9943 9.99506C95.2525 10.6319 94.5033 14.3182 94.0462 16.551C93.1022 21.2339 92.3529 24.9427 89.9103 24.9427C87.4678 24.9427 86.7185 21.2413 85.7595 16.551C85.2875 14.2358 84.5007 10.3622 83.729 9.94261C83.7365 9.9501 83.7665 9.9576 83.8114 9.9576V7.70984C86.254 7.70984 87.0032 11.4111 87.9623 16.1015C88.4193 18.3342 89.1686 22.0206 89.9103 22.6574C90.6521 22.0206 91.4014 18.3417 91.8584 16.109C92.81 11.4186 93.5667 7.71733 96.0093 7.71733C98.4518 7.71733 99.2011 11.4186 100.16 16.109C100.617 18.3417 101.366 22.0281 102.108 22.6649C102.85 22.0281 103.599 18.3492 104.056 16.109C105.008 11.4186 105.765 7.71733 108.207 7.71733C110.65 7.71733 111.406 11.4186 112.358 16.109C112.83 18.4242 113.617 22.2978 114.388 22.7174C114.381 22.7099 114.351 22.7024 114.306 22.7024V24.9427H114.291Z" fill="white"/>
<path d="M83.8115 35.1699C86.861 35.1699 86.861 50.1549 89.903 50.1549C92.9524 50.1549 92.9524 35.1699 96.0019 35.1699C99.0513 35.1699 99.0513 50.1549 102.093 50.1549C105.143 50.1549 105.143 35.1699 108.192 35.1699C111.242 35.1699 111.242 50.1549 114.291 50.1549" stroke="white" stroke-width="3" stroke-miterlimit="10"/>
<path d="M119.88 0H81.2265H76.9857H41.9357H38.3318H0V120.847H38.3318H41.9357H81.2265V63.3943H119.88V0ZM37.4402 116.351H4.49552V4.49552H37.4402V116.351ZM76.731 116.351H42.8273V4.49552H76.731V116.351ZM115.385 58.8988H81.4813V4.49552H115.385V58.8988Z" fill="white"/>
</svg>
