<svg width="120" height="120" viewBox="0 0 120 120" fill="none" xmlns="http://www.w3.org/2000/svg">
<path d="M85.2607 26.1358C84.7652 19.221 76.1086 16.6157 70.5752 22.059C65.7101 27.5022 64.2536 34.9351 63.0898 42.2853C77.5426 3.90482 89.4577 37.1724 74.2842 31.9319C81.4017 25.8505 66.4234 24.5741 72.212 32.7428C76.5741 38.3887 86.5671 34.7549 85.2607 26.1358Z" fill="white"/>
<path d="M69.2764 19.7916C69.9596 18.688 76.6266 18.245 79.5772 16.9086C82.4152 14.4084 78.2033 10.5794 74.2241 12.584C72.1819 13.6051 69.2463 19.6865 69.2764 19.7916Z" fill="white"/>
<path d="M34.7473 26.1358C35.2428 19.221 43.8995 16.6157 49.4328 22.059C54.298 27.5022 55.7545 34.9351 56.9182 42.2853C42.458 3.90482 30.5429 37.1724 45.7164 31.9319C38.5989 25.8505 53.5772 24.5741 47.7886 32.7428C43.4415 38.3887 33.4409 34.7549 34.7473 26.1358Z" fill="white"/>
<path d="M50.7316 19.7916C50.0484 18.688 43.3814 18.245 40.4307 16.9086C37.5927 14.4084 41.8047 10.5794 45.7839 12.584C47.826 13.6051 50.7617 19.6865 50.7316 19.7916Z" fill="white"/>
<path d="M68.8634 9.88123C67.1816 6.28493 60.6347 -0.0817916 59.8088 0.00079562C58.6451 0.323637 49.568 8.67996 50.4014 12.3814C51.3399 20.6326 55.3416 22.5921 57.6465 34.2294C60.2368 46.3322 58.6676 50.1387 59.8313 50.3865C61.0701 50.424 59.1331 44.4778 63.2775 29.0415C64.4863 24.6343 70.868 14.2208 68.8634 9.88123ZM59.974 31.5641C59.9665 31.5491 59.9064 31.5866 59.8539 31.4815C59.8463 31.4815 59.8464 31.5116 59.8088 31.4815C52.1808 6.85553 67.4219 9.58091 59.974 31.5641Z" fill="white"/>
<path d="M85.2607 93.8798C84.7652 100.795 76.1086 103.4 70.5752 97.9566C65.7101 92.5134 64.2536 85.0805 63.0898 77.7303C77.5426 116.111 89.4577 82.8432 74.2842 88.0837C81.4017 94.1651 66.4234 95.4415 72.212 87.2729C76.5741 81.6269 86.5671 85.2607 85.2607 93.8798Z" fill="white"/>
<path d="M69.2764 100.224C69.9596 101.328 76.6266 101.771 79.5772 103.107C82.4152 105.607 78.2033 109.436 74.2241 107.432C72.1819 106.403 69.2463 100.322 69.2764 100.224Z" fill="white"/>
<path d="M34.7473 93.8798C35.2428 100.795 43.8995 103.4 49.4328 97.9566C54.298 92.5134 55.7545 85.0805 56.9182 77.7303C42.4655 116.111 30.5504 82.8432 45.7239 88.0837C38.6064 94.1651 53.5847 95.4415 47.7961 87.2729C43.4415 81.6269 33.4409 85.2607 34.7473 93.8798Z" fill="white"/>
<path d="M50.7316 100.224C50.0484 101.328 43.3814 101.771 40.4307 103.107C37.5927 105.607 41.8047 109.436 45.7839 107.432C47.826 106.403 50.7617 100.322 50.7316 100.224Z" fill="white"/>
<path d="M63.2777 90.9668C57.3239 62.8421 61.7611 63.5028 57.6467 85.7713C55.3643 99.2105 46.4224 105.344 52.5789 112.912C55.3117 116.471 58.9681 119.82 59.8615 120C60.7099 119.962 68.7059 112.439 69.2164 108.963C69.9747 104.053 64.4789 95.3964 63.2777 90.9668ZM61.9262 101.148C57.7218 118.318 56.7458 87.5732 59.809 88.5267C59.8165 88.5267 59.8165 88.4967 59.854 88.5267C60.9952 88.0312 61.8737 96.9205 61.9262 101.148Z" fill="white"/>
<path d="M26.1357 34.7475C19.2209 35.243 16.6157 43.8997 22.0589 49.433C27.5022 54.2981 34.935 55.7547 42.2853 56.9184C3.90477 42.4657 37.1724 30.5506 31.9319 45.7241C25.8504 38.6066 24.5741 53.5849 32.7427 47.7963C38.3887 43.4417 34.7548 33.4411 26.1357 34.7475Z" fill="white"/>
<path d="M19.7916 50.7394C18.688 50.0561 18.245 43.3891 16.9086 40.4385C14.4084 37.6005 10.5794 41.8124 12.584 45.7916C13.6051 47.8263 19.6865 50.7619 19.7916 50.7394Z" fill="white"/>
<path d="M26.1357 85.2608C19.2209 84.7653 16.6157 76.1087 22.0589 70.5753C27.5022 65.7102 34.935 64.2536 42.2853 63.0899C3.90477 77.5427 37.1724 89.4577 31.9319 74.2842C25.8504 81.4017 24.5741 66.4234 32.7427 72.212C38.3887 76.5741 34.7548 86.5672 26.1357 85.2608Z" fill="white"/>
<path d="M19.7916 69.2765C18.688 69.9597 18.245 76.6267 16.9086 79.5774C14.4084 82.4153 10.5794 78.2034 12.584 74.2242C13.6051 72.182 19.6865 69.2464 19.7916 69.2765Z" fill="white"/>
<path d="M9.88123 51.1447C6.28493 52.8265 -0.0817916 59.3734 0.00079562 60.1992C0.323637 61.363 8.67996 70.44 12.3814 69.6067C20.6326 68.6682 22.5922 64.6664 34.2294 62.3615C46.3322 59.7713 50.1387 61.3404 50.3865 60.1767C50.424 58.9379 44.4778 60.8749 29.0415 56.7306C24.6343 55.5293 14.2208 49.1401 9.88123 51.1447ZM31.5641 60.0416C31.5491 60.0491 31.5866 60.1091 31.4815 60.1617C31.4815 60.1692 31.5116 60.1692 31.4815 60.2067C6.85554 67.8273 9.58091 52.5937 31.5641 60.0416Z" fill="white"/>
<path d="M93.8798 34.7475C100.795 35.243 103.4 43.8997 97.9566 49.433C92.5133 54.2981 85.0805 55.7547 77.7302 56.9184C116.111 42.4657 82.8431 30.5506 88.0837 45.7241C94.1651 38.6066 95.4414 53.5849 87.2728 47.7963C81.6193 43.4417 85.2532 33.4411 93.8798 34.7475Z" fill="white"/>
<path d="M100.224 50.7394C101.328 50.0562 101.771 43.3892 103.107 40.4386C105.607 37.6006 109.436 41.8125 107.432 45.7917C106.403 47.8264 100.322 50.762 100.224 50.7394Z" fill="white"/>
<path d="M93.8798 85.2609C100.795 84.7654 103.4 76.1087 97.9566 70.5754C92.5133 65.7102 85.0805 64.2537 77.7302 63.09C116.111 77.5427 82.8431 89.4578 88.0837 74.2843C94.1651 81.4018 95.4414 66.4235 87.2728 72.2121C81.6193 76.5742 85.2532 86.5673 93.8798 85.2609Z" fill="white"/>
<path d="M100.224 69.2765C101.328 69.9598 101.771 76.6268 103.107 79.5774C105.607 82.4154 109.436 78.2035 107.432 74.2243C106.403 72.1821 100.322 69.2465 100.224 69.2765Z" fill="white"/>
<path d="M90.9669 56.7307C62.8422 62.6845 63.5029 58.2473 85.7714 62.3616C99.2106 64.644 105.345 73.586 112.913 67.4295C116.471 64.6966 119.82 61.0402 120 60.1468C119.963 59.2984 112.44 51.3024 108.963 50.7919C104.053 50.0336 95.3966 55.5294 90.9669 56.7307ZM101.148 58.0821C118.318 62.2865 87.5733 63.2626 88.5268 60.1993C88.5268 60.1918 88.4968 60.1918 88.5268 60.1543C88.0313 59.0206 96.9207 58.1347 101.148 58.0821Z" fill="white"/>
<path d="M64.6666 60.0642C79.1044 56.9184 81.1916 41.8499 81.1765 37.8107C73.999 37.4128 61.6634 43.2239 59.6588 53.6224C56.3553 39.8754 41.7749 37.7506 38.1411 37.8107C37.8408 45.8517 43.712 58.1196 54.651 60.0642C40.2133 63.21 38.1261 78.2784 38.1411 82.3177C45.3187 82.7156 57.6542 76.9045 59.6588 66.506C62.9698 80.2605 77.5427 82.3777 81.1765 82.3177C81.4769 74.2767 75.6057 62.0012 64.6666 60.0642ZM64.584 50.7769C67.0241 48.2842 70.9432 48.2542 70.9432 48.2542C71.3787 53.9753 65.0645 57.6992 62.1139 57.2637C62.1139 57.2712 62.1439 53.2695 64.584 50.7769ZM54.7336 69.3515C52.2935 71.8441 48.3744 71.8742 48.3744 71.8742C47.9389 66.1531 54.2531 62.4292 57.2037 62.8646C57.2037 62.8571 57.1737 66.8589 54.7336 69.3515ZM50.8445 54.7486C48.4044 52.2559 48.3744 48.2542 48.3744 48.2542C54.1705 47.8187 57.6392 54.4933 57.2037 57.2637C57.2037 57.2712 53.2846 57.2337 50.8445 54.7486ZM64.584 69.3515C62.1439 66.8589 62.1139 62.8571 62.1139 62.8571C67.91 62.4217 71.3787 69.0962 70.9432 71.8666C70.9432 71.8742 67.0241 71.8366 64.584 69.3515Z" fill="white"/>
</svg>
