<svg width="120" height="118" viewBox="0 0 120 118" fill="none" xmlns="http://www.w3.org/2000/svg">
<path d="M60.0515 0C48.7918 0 40.9248 10.5164 40.9248 25.5661C40.9248 37.6058 51.1027 50.3079 55.7463 54.2524C56.9901 55.3122 58.5208 55.842 60.0515 55.842C61.5822 55.842 63.1056 55.3122 64.3493 54.2524C68.9562 50.3373 79.0605 37.6794 79.0605 25.5661C79.0678 10.5164 71.2523 0 60.0515 0ZM45.2668 25.5661C45.2668 14.4609 50.0282 6.3216 57.152 4.59217C57.1446 4.59953 57.1299 4.60689 57.1225 4.62161C56.5853 5.23243 55.9303 10.2809 55.3121 10.8843C53.2 12.9302 50.4109 14.1666 50.4109 17.0588C50.4109 18.5821 50.9407 20.0392 51.7576 21.3786C47.71 21.3786 47.7836 22.7548 47.7836 26.7362C47.7836 30.7175 51.0659 33.9482 55.1134 33.9482C55.5844 33.9482 56.0407 33.8967 56.4896 33.8158L59.2493 51.4338C59.0212 51.3455 58.8004 51.2204 58.6017 51.0512C54.0905 47.2243 45.2668 35.4495 45.2668 25.5661ZM59.5658 51.5369H60.5446C60.2208 51.6105 59.8896 51.6105 59.5658 51.5369ZM61.516 51.0512C61.2805 51.2499 61.0229 51.3897 60.758 51.478L63.5324 33.698C64.1065 33.8599 64.7026 33.9556 65.3207 33.9556C69.1328 33.9556 72.2237 30.7249 72.2237 26.7435C72.2237 22.7622 72.0618 21.386 68.2497 21.386C69.0592 20.0466 69.5965 18.5968 69.5965 17.0661C69.5965 14.4609 66.2922 12.8419 64.445 10.8917C63.8562 10.2662 63.3779 5.23243 62.8922 4.65105C62.8627 4.61425 62.8259 4.59218 62.7965 4.56274C69.9497 6.21857 74.7479 14.3873 74.7479 25.5734C74.7332 35.5158 65.9831 47.2538 61.516 51.0512Z" fill="white"/>
<path d="M79.068 91.9171C79.068 79.8111 68.9638 67.1458 64.3569 63.2307C63.1132 62.171 61.5824 61.6411 60.0591 61.6411C58.5284 61.6411 57.005 62.171 55.7539 63.2307C51.1102 67.1753 40.9324 79.8773 40.9324 91.9171C40.9324 106.974 48.7994 117.483 60.0591 117.483C71.2525 117.483 79.068 106.967 79.068 91.9171ZM58.5946 66.432C58.7933 66.2627 59.0141 66.1376 59.2422 66.0493L56.4825 83.6674C56.0336 83.5864 55.5773 83.5349 55.1063 83.5349C51.0587 83.5349 47.7765 86.7656 47.7765 90.747C47.7765 94.7283 47.7029 96.1045 51.7505 96.1045C50.941 97.4439 50.4037 98.8937 50.4037 100.424C50.4037 103.317 53.1929 104.553 55.305 106.599C55.9232 107.202 56.5782 112.251 57.1154 112.862C57.1227 112.869 57.1375 112.876 57.1448 112.891C50.0211 111.154 45.2596 103.022 45.2596 91.9171C45.267 82.0336 54.0907 70.2588 58.5946 66.432ZM60.5448 65.9463H59.566C59.8898 65.8727 60.221 65.8727 60.5448 65.9463ZM74.7334 91.9171C74.7334 103.103 69.9426 111.272 62.782 112.928C62.8114 112.898 62.8482 112.876 62.8777 112.839C63.3634 112.265 63.8417 107.224 64.4305 106.599C66.2776 104.649 69.582 103.03 69.582 100.424C69.582 98.901 69.0521 97.4439 68.2352 96.1045C72.0473 96.1045 72.2092 94.7283 72.2092 90.747C72.2092 86.7656 69.1183 83.5349 65.3062 83.5349C64.688 83.5349 64.0919 83.6306 63.5179 83.7925L60.7435 66.0125C61.0084 66.1008 61.2734 66.2406 61.5015 66.4393C65.9833 70.2294 74.7334 81.9674 74.7334 91.9171Z" fill="white"/>
<path d="M0 58.69C0 69.7142 10.7372 77.412 26.118 77.412C38.4153 77.412 51.3897 67.4475 55.4152 62.8995C56.497 61.6779 57.0342 60.184 57.0342 58.69C57.0342 57.1961 56.497 55.7022 55.4152 54.4805C51.4117 49.9693 38.4815 40.0711 26.118 40.0711C10.7372 40.0711 0 47.7247 0 58.69ZM26.118 73.1657C14.7774 73.1657 6.46142 68.5073 4.68784 61.5307C4.6952 61.5381 4.70256 61.5528 4.71728 61.5601C5.34282 62.09 10.5017 62.7229 11.1125 63.3337C13.2025 65.4017 14.4683 68.1319 17.4194 68.1319C18.9795 68.1319 20.4661 67.6094 21.8275 66.8146C21.8275 70.7739 23.2332 70.7003 27.3028 70.7003C31.3725 70.7003 34.6694 67.4917 34.6694 63.5251C34.6694 63.0614 34.6179 62.6125 34.537 62.1783L52.5304 59.4775C52.4347 59.6982 52.3096 59.9117 52.1403 60.1104C48.2326 64.5259 36.2075 73.1657 26.118 73.1657ZM52.6407 59.1684V58.2117C52.7143 58.5281 52.7143 58.8519 52.6407 59.1684ZM52.1403 57.255C52.339 57.4831 52.4862 57.7333 52.5745 57.9983L34.4119 55.2827C34.5738 54.7234 34.6694 54.142 34.6694 53.5312C34.6694 49.8 31.3725 46.7754 27.3028 46.7754C23.2332 46.7754 21.8275 46.9299 21.8275 50.6611C20.4587 49.8663 18.9722 49.3438 17.4194 49.3438C14.7627 49.3438 13.0995 52.5818 11.1125 54.3922C10.4722 54.9736 5.3281 55.4372 4.73936 55.9156C4.70256 55.945 4.68049 55.9818 4.65105 56.0113C6.34368 49.0052 14.6891 44.31 26.1106 44.31C36.2738 44.3174 48.2693 52.8836 52.1403 57.255Z" fill="white"/>
<path d="M93.882 40.0711C81.5111 40.0711 68.5809 49.9619 64.5849 54.4805C63.503 55.7022 62.9658 57.1961 62.9658 58.69C62.9658 60.184 63.503 61.6852 64.5849 62.8995C68.6177 67.4475 81.5847 77.412 93.882 77.412C109.256 77.412 120 69.7142 120 58.69C120 47.7247 109.263 40.0711 93.882 40.0711ZM67.8597 60.1177C67.6905 59.9264 67.558 59.7056 67.4697 59.4848L85.4631 62.1857C85.3748 62.6199 85.3306 63.0688 85.3306 63.5324C85.3306 67.4917 88.6275 70.7077 92.6972 70.7077C96.7669 70.7077 98.1725 70.7813 98.1725 66.822C99.5413 67.6168 101.028 68.1393 102.581 68.1393C105.539 68.1393 106.798 65.409 108.888 63.3411C109.498 62.7303 114.665 62.0974 115.283 61.5675C115.29 61.5601 115.297 61.5454 115.312 61.5381C113.539 68.5146 105.23 73.173 93.882 73.173C83.7925 73.1657 71.7675 64.5259 67.8597 60.1177ZM67.3593 58.2117V59.1684C67.2857 58.8519 67.2857 58.5281 67.3593 58.2117ZM93.882 44.3174C105.304 44.3174 113.656 49.0126 115.342 56.0186C115.312 55.9892 115.283 55.9524 115.253 55.9229C114.665 55.4446 109.52 54.981 108.88 54.3996C106.893 52.5892 105.23 49.3511 102.573 49.3511C101.013 49.3511 99.5266 49.8736 98.1651 50.6684C98.1651 46.9373 96.7595 46.7827 92.6898 46.7827C88.6202 46.7827 85.3232 49.8074 85.3232 53.5385C85.3232 54.142 85.4189 54.7307 85.5808 55.29L67.4182 58.0056C67.5138 57.7407 67.6537 57.4905 67.8524 57.2623C71.7307 52.8836 83.7263 44.3174 93.882 44.3174Z" fill="white"/>
<path d="M33.4699 90.3863C33.2344 91.2841 32.8297 92.1231 32.1747 92.7633C31.0487 93.8598 28.9513 93.1828 27.3323 93.2417C26.8098 93.2637 24.4401 95.1919 23.9838 95.236C22.7033 95.3538 21.4449 94.1248 21.5332 92.859C21.57 92.3806 23.476 89.9742 23.4687 89.4664C23.4613 87.7296 22.8137 86.0517 24.0648 84.83C24.7198 84.1824 25.5734 83.7924 26.4933 83.5642C24.786 81.8937 25.4115 81.3417 27.1262 79.6565C28.8409 77.9712 31.6301 77.9638 33.3374 79.6418C33.5361 79.8331 33.7054 80.0465 33.86 80.2673L42.6837 73.931L43.3166 74.5491L36.7889 83.2404C37.098 83.4097 37.3924 83.6158 37.6573 83.8733C39.269 85.4482 39.1807 88.0975 37.4586 89.7754C35.7439 91.446 35.0816 91.9611 33.4699 90.3863Z" fill="white"/>
<path d="M92.6309 32.4616C93.5508 32.2335 94.4045 31.8361 95.0595 31.1958C96.1854 30.0993 95.4863 28.0387 95.5452 26.4565C95.5673 25.9487 97.5395 23.6232 97.5763 23.1742C97.7014 21.9158 96.443 20.6868 95.1478 20.7751C94.6547 20.8119 92.2041 22.6738 91.6816 22.6738C89.908 22.6664 88.1933 22.0336 86.9422 23.2552C86.2872 23.9028 85.8825 24.7344 85.647 25.6322C83.9396 23.9617 83.373 24.5725 81.6583 26.2504C79.9362 27.9357 79.9288 30.6586 81.6362 32.3292C81.8349 32.5205 82.0483 32.6898 82.2764 32.8443L75.8003 41.4767L76.4332 42.0949L85.3084 35.707C85.4777 36.0088 85.6911 36.2958 85.9561 36.5534C87.5677 38.1282 90.2686 38.0473 91.9907 36.362C93.7201 34.6841 94.2426 34.0365 92.6309 32.4616Z" fill="white"/>
<path d="M33.4699 25.6249C33.2344 24.727 32.8297 23.8881 32.1747 23.2478C31.0487 22.1513 28.9513 22.8283 27.3323 22.7695C26.8098 22.7474 24.4401 20.8193 23.9838 20.7751C22.7033 20.6574 21.4449 21.8864 21.5332 23.1521C21.57 23.6305 23.476 26.037 23.4687 26.5448C23.4613 28.2815 22.8137 29.9595 24.0648 31.1811C24.7198 31.8287 25.5734 32.2187 26.4933 32.4469C24.786 34.1174 25.4115 34.6694 27.1262 36.3546C28.8483 38.0399 31.6301 38.0473 33.3374 36.3694C33.5361 36.178 33.7054 35.9646 33.86 35.7438L42.6837 42.0801L43.3166 41.462L36.7889 32.7707C37.098 32.6014 37.3924 32.3954 37.6573 32.1378C39.269 30.5629 39.1807 27.9136 37.4586 26.2357C35.7439 24.5651 35.0816 24.05 33.4699 25.6249Z" fill="white"/>
<path d="M92.6309 83.5495C93.5508 83.7777 94.4045 84.1751 95.0595 84.8153C96.1854 85.9118 95.4863 87.9724 95.5452 89.5547C95.5673 90.0625 97.5395 92.388 97.5763 92.8369C97.7014 94.0953 96.443 95.3243 95.1478 95.236C94.6547 95.1992 92.2041 93.3373 91.6816 93.3373C89.908 93.3447 88.1933 93.9776 86.9422 92.7559C86.2872 92.1083 85.8825 91.2767 85.647 90.3789C83.9396 92.0495 83.373 91.4386 81.6583 89.7607C79.9362 88.0755 79.9288 85.3525 81.6362 83.682C81.8349 83.4907 82.0483 83.3214 82.2764 83.1668L75.8003 74.5344L76.4332 73.9163L85.3084 80.3041C85.4777 80.0024 85.6911 79.7154 85.9561 79.4578C87.5677 77.8829 90.2686 77.9638 91.9907 79.6491C93.7201 81.327 94.2426 81.9673 92.6309 83.5495Z" fill="white"/>
</svg>
